:SAMPLES-PER-SECOND 30
:FULLY-SPECIFIED
:DEGREES
130
root  6.94907 25.2479 1.21457 -50.5146 -59.9158 46.9629
RightUpLeg  -58.6162 17.2289 -24.8048
RightLeg  109.861 3.20329 -7.03809
RightFoot  -30.0804 1.75181 11.8183
RightToes  -1.28057e-009 0 -3.6325e-017
Spine  45.2676 -7.78466 5.8167
Spine1  -8.50185 -2.20109 -26.7821
HEad  -20.4291 -25.228 -4.81189
LeftShoulder1  0.630389 -2.49775 -2.4396
LeftArm  -49.1082 -48.3428 -40.9939
LeftForeArm  41.3953 -54.3318 -12.4291
LeftHand  2.46127 9.95279 56.1761
RightShoulder  0.0016551 -4.5446 -9.6216
RightArm  -10.0672 53.465 70.1996
RightForeArm  55.6488 68.7121 22.5005
RightHand  -2.73502 0.552527 -50.3868
LeftUpLeg  -52.3172 15.9798 -31.7179
LeftLeg  98.4147 -0.957084 3.55552
LeftFoot  -32.1425 -0.891405 -5.91669
LeftToes  -7.27922e-012 9.28972e-011 -9.04533e-012
131
root  6.90203 24.3385 0.595389 -39.9788 -60.1877 35.6324
RightUpLeg  -58.9208 13.0288 -18.3042
RightLeg  112.26 3.64627 -7.19692
RightFoot  -32.2904 2.03511 12.1685
RightToes  -1.28057e-009 0 -3.6325e-017
Spine  49.0461 -5.45254 1.54522
Spine1  -14.9941 -3.6514 -15.1545
HEad  -18.4828 -22.3523 -4.1833
LeftShoulder1  0.596441 -3.98087 0.45833
LeftArm  -47.0809 -54.8189 -43.2135
LeftForeArm  56.6229 -68.2837 -22.3204
LeftHand  3.05858 11.048 56.3941
RightShoulder  -0.0149664 -5.87968 -8.9148
RightArm  -32.5766 47.9608 50.7141
RightForeArm  53.9928 71.504 27.71
RightHand  -3.05504 1.10756 -51.3007
LeftUpLeg  -54.6382 11.0379 -26.764
LeftLeg  102.785 -1.69183 5.25397
LeftFoot  -34.1464 -0.834027 -5.15342
LeftToes  -7.27922e-012 9.28972e-011 -9.04533e-012
132
root  6.7019 23.4696 -0.254836 -27.8139 -60.3935 22.3532
RightUpLeg  -59.8287 8.52876 -9.26548
RightLeg  114.243 4.15867 -7.56484
RightFoot  -33.5366 2.04392 11.5556
RightToes  -1.28057e-009 0 -3.6325e-017
Spine  52.1635 -1.52782 -4.32955
Spine1  -19.8156 -3.2418 -0.797766
HEad  -17.8878 -18.5114 -2.45487
LeftShoulder1  0.382383 -5.87389 4.98371
LeftArm  -34.3082 -62.4605 -52.4061
LeftForeArm  79.5507 -77.1036 -38.7536
LeftHand  2.78643 10.618 55.6807
RightShoulder  -0.0865589 -6.9075 -6.65456
RightArm  -44.2846 38.0668 39.0869
RightForeArm  45.228 67.7587 23.1724
RightHand  -3.35679 1.51399 -52.8373
LeftUpLeg  -57.641 5.88981 -19.3202
LeftLeg  107.394 -2.66087 6.69569
LeftFoot  -35.7558 -0.961211 -5.43938
LeftToes  -7.27922e-012 9.28972e-011 -9.04533e-012
133
root  6.32949 22.7194 -1.13828 -13.3456 -58.9773 5.8179
RightUpLeg  -60.2081 2.43153 2.76709
RightLeg  115.245 5.20126 -9.2295
RightFoot  -34.1875 1.78382 9.9703
RightToes  -1.28057e-009 0 -3.6325e-017
Spine  53.6112 2.05177 -9.38911
Spine1  -20.168 -2.54522 15.0795
HEad  -19.6125 -13.3893 -0.519138
LeftShoulder1  -0.15046 -6.12215 11.5454
LeftArm  -4.76446 -66.7888 -77.0445
LeftForeArm  90.1294 -78.5667 -44.5555
LeftHand  2.52826 10.2256 54.7673
RightShoulder  -0.153227 -6.75161 -4.18117
RightArm  -48.0901 29.1216 34.0069
RightForeArm  37.239 59.3506 15.7119
RightHand  -3.50825 1.68686 -53.7124
LeftUpLeg  -61.0049 -0.257046 -8.63625
LeftLeg  112.326 -3.11383 6.2038
LeftFoot  -35.7788 -1.30864 -7.03964
LeftToes  -7.27922e-012 9.28972e-011 -9.04533e-012
134
root  5.85723 22.1684 -1.88627 0.442154 -55.4039 -10.55
RightUpLeg  -60.1952 -4.72531 15.5304
RightLeg  114.887 5.67593 -10.2694
RightFoot  -35.3523 1.47682 8.07372
RightToes  -1.28057e-009 0 -3.6325e-017
Spine  53.2238 4.45568 -12.5885
Spine1  -15.4294 -3.26819 29.8706
HEad  -23.8273 -7.37224 1.84945
LeftShoulder1  -0.590513 -5.02285 17.6024
LeftArm  30.7758 -66.0903 -107.793
LeftForeArm  75.3293 -71.9626 -26.4519
LeftHand  2.84724 10.6745 56.2523
RightShoulder  -0.142033 -5.75384 -2.46896
RightArm  -48.2153 23.5708 34.6691
RightForeArm  31.2886 47.7713 10.0557
RightHand  -3.87014 2.28158 -54.5035
LeftUpLeg  -64.3404 -6.46817 3.86784
LeftLeg  116.264 -2.96124 4.87664
LeftFoot  -36.0465 -1.64869 -8.508
LeftToes  -7.27922e-012 9.28972e-011 -9.04533e-012
